<svg width="279" height="76" viewBox="0 0 279 76" fill="none" xmlns="http://www.w3.org/2000/svg">
<path d="M107.816 27.5215L100.245 55.5H90.7683L86.356 37.3491L81.7931 55.5H72.3667L64.7453 27.5215H73.3194L77.2805 47.5276L81.9937 27.5215H91.0692L95.8325 47.4273L99.7435 27.5215H107.816ZM109.381 41.4606C109.381 38.5859 109.916 36.0621 110.986 33.8893C112.089 31.7166 113.576 30.0452 115.448 28.8753C117.32 27.7053 119.409 27.1204 121.716 27.1204C123.688 27.1204 125.409 27.5215 126.88 28.3237C128.384 29.126 129.538 30.1789 130.34 31.4826V27.5215H138.914V55.5H130.34V51.5389C129.504 52.8425 128.334 53.8955 126.83 54.6977C125.359 55.5 123.638 55.9011 121.666 55.9011C119.393 55.9011 117.32 55.3162 115.448 54.1462C113.576 52.9428 112.089 51.2548 110.986 49.082C109.916 46.8758 109.381 44.3353 109.381 41.4606ZM130.34 41.5107C130.34 39.3714 129.738 37.6833 128.535 36.4465C127.365 35.2097 125.928 34.5913 124.223 34.5913C122.518 34.5913 121.064 35.2097 119.861 36.4465C118.691 37.6499 118.106 39.3213 118.106 41.4606C118.106 43.5999 118.691 45.3047 119.861 46.575C121.064 47.8118 122.518 48.4302 124.223 48.4302C125.928 48.4302 127.365 47.8118 128.535 46.575C129.738 45.3381 130.34 43.6501 130.34 41.5107ZM153.691 18.3959V55.5H145.117V18.3959H153.691ZM168.479 18.3959V55.5H159.905V18.3959H168.479ZM201.066 41.0595C201.066 41.8617 201.016 42.6974 200.916 43.5665H181.511C181.645 45.3047 182.197 46.6418 183.166 47.5778C184.169 48.4803 185.389 48.9316 186.826 48.9316C188.966 48.9316 190.453 48.029 191.289 46.224H200.414C199.946 48.0625 199.094 49.7171 197.857 51.1879C196.654 52.6587 195.133 53.8119 193.294 54.6476C191.456 55.4833 189.4 55.9011 187.127 55.9011C184.386 55.9011 181.946 55.3162 179.807 54.1462C177.667 52.9763 175.996 51.3049 174.792 49.1321C173.589 46.9594 172.987 44.4189 172.987 41.5107C172.987 38.6026 173.572 36.0621 174.742 33.8893C175.946 31.7166 177.617 30.0452 179.756 28.8753C181.896 27.7053 184.353 27.1204 187.127 27.1204C189.835 27.1204 192.241 27.6886 194.347 28.8251C196.453 29.9617 198.091 31.5829 199.261 33.6888C200.464 35.7947 201.066 38.2516 201.066 41.0595ZM192.292 38.8031C192.292 37.3323 191.79 36.1624 190.787 35.2933C189.785 34.4242 188.531 33.9896 187.027 33.9896C185.589 33.9896 184.369 34.4075 183.366 35.2431C182.397 36.0788 181.795 37.2655 181.561 38.8031H192.292ZM221.183 48.2296V55.5H216.821C213.712 55.5 211.289 54.7479 209.551 53.2437C207.812 51.706 206.943 49.2157 206.943 45.7727V34.6415H203.534V27.5215H206.943V20.7023H215.517V27.5215H221.133V34.6415H215.517V45.873C215.517 46.7087 215.718 47.3103 216.119 47.678C216.52 48.0457 217.189 48.2296 218.125 48.2296H221.183ZM228.617 22.9587C227.915 22.9587 227.313 22.708 226.811 22.2066C226.31 21.7052 226.059 21.0868 226.059 20.3514C226.059 19.616 226.31 19.0143 226.811 18.5463C227.313 18.0449 227.915 17.7942 228.617 17.7942C229.319 17.7942 229.92 18.0449 230.422 18.5463C230.923 19.0143 231.174 19.616 231.174 20.3514C231.174 21.0868 230.923 21.7052 230.422 22.2066C229.92 22.708 229.319 22.9587 228.617 22.9587ZM230.371 28.1232V55.5H226.862V28.1232H230.371ZM249.1 31.0815H242.732V55.5H239.222V31.0815H235.411V28.1232H239.222V26.2178C239.222 23.2428 239.974 21.0533 241.478 19.6494C243.016 18.2454 245.49 17.5435 248.899 17.5435V20.5519C246.626 20.5519 245.022 20.9865 244.086 21.8556C243.183 22.7247 242.732 24.1788 242.732 26.2178V28.1232H249.1V31.0815ZM277.188 28.1232L260.943 68.3862H257.283L262.597 55.3496L251.366 28.1232H255.227L264.553 51.4887L273.578 28.1232H277.188Z" fill="black"/>
<path d="M6.50296 11.7357C5.0008 11.7357 3.56016 12.3276 2.49797 13.3811C1.43578 14.4347 0.83905 15.8636 0.83905 17.3535V54.8058C0.83905 57.2891 1.8336 59.6706 3.60392 61.4265C5.37423 63.1824 7.7753 64.1689 10.2789 64.1689H46.1503C48.1532 64.1689 50.0741 63.3797 51.4903 61.975C52.9066 60.5703 53.7022 58.665 53.7022 56.6785V26.7166C53.7022 25.4018 53.3532 24.1101 52.6904 22.9715C52.0276 21.8328 51.0743 20.8873 49.9263 20.2299V19.2261C49.9263 17.2396 49.1306 15.3343 47.7144 13.9296C46.2981 12.5249 44.3773 11.7357 42.3744 11.7357H6.50296ZM46.1503 19.2261H6.50296C6.00224 19.2261 5.52203 19.0289 5.16796 18.6777C4.8139 18.3265 4.61499 17.8502 4.61499 17.3535C4.61499 16.8569 4.8139 16.3806 5.16796 16.0294C5.52203 15.6782 6.00224 15.4809 6.50296 15.4809H42.3744C43.3758 15.4809 44.3363 15.8755 45.0444 16.5779C45.7525 17.2802 46.1503 18.2329 46.1503 19.2261ZM40.4864 41.6975H44.2624C44.7631 41.6975 45.2433 41.8948 45.5974 42.246C45.9514 42.5972 46.1503 43.0735 46.1503 43.5701C46.1503 44.0668 45.9514 44.5431 45.5974 44.8943C45.2433 45.2455 44.7631 45.4428 44.2624 45.4428H40.4864C39.9857 45.4428 39.5055 45.2455 39.1514 44.8943C38.7974 44.5431 38.5985 44.0668 38.5985 43.5701C38.5985 43.0735 38.7974 42.5972 39.1514 42.246C39.5055 41.8948 39.9857 41.6975 40.4864 41.6975Z" fill="#345AFA"/>
</svg>
