<svg width="24" height="24" viewBox="0 0 24 24" fill="none" xmlns="http://www.w3.org/2000/svg">
<path d="M6.42 17.73C4.19 16.27 2.75 14.07 2.75 12.14C2.75 8.86 6.89 4.84 12 4.84C13.991 4.84758 15.9355 5.44241 17.59 6.55" stroke="#9A9A9A" stroke-width="1.5" stroke-miterlimit="10" stroke-linecap="round" stroke-linejoin="round"/>
<path d="M17.5 6.5C18.6751 7.28192 19.1936 7.74257 19.85 8.61C20.6965 9.5989 21.1923 10.84 21.26 12.14C21.26 15.42 17.11 19.44 12 19.44C11.1111 19.4388 10.2265 19.3177 9.37 19.08C7.91573 18.5835 7.20493 18.2135 6 17.5" stroke="#9A9A9A" stroke-width="1.5" stroke-miterlimit="10" stroke-linecap="round" stroke-linejoin="round"/>
<path fill-rule="evenodd" clip-rule="evenodd" d="M11.0763 9.90644C11.5168 9.72342 12.0018 9.67525 12.4697 9.76801C12.9028 9.85389 13.3034 10.057 13.6281 10.3542C13.6491 10.3816 13.6721 10.408 13.6973 10.4329C13.9215 10.6548 14.0991 10.9192 14.2197 11.2106C14.3404 11.502 14.4017 11.8145 14.4 12.1299L14.4 12.1354C14.4009 12.6124 14.2602 13.0789 13.9958 13.4759C13.7314 13.8729 13.3551 14.1826 12.9146 14.3656C12.4741 14.5486 11.9892 14.5967 11.5213 14.504C11.0882 14.4181 10.6876 14.215 10.3628 13.9178C10.3419 13.8904 10.3188 13.864 10.2936 13.8391C10.0695 13.6172 9.89188 13.3528 9.77123 13.0614C9.65057 12.77 9.58929 12.4575 9.59098 12.1421L9.59099 12.1366C9.59007 11.6596 9.73072 11.1931 9.99514 10.7961C10.2596 10.3991 10.6358 10.0894 11.0763 9.90644ZM9.14316 14.8075C8.82184 14.4662 8.56494 14.0691 8.38533 13.6353C8.18866 13.1603 8.0886 12.6509 8.09098 12.1368C8.09003 11.3639 8.3182 10.6079 8.74669 9.96459C9.17568 9.32047 9.78617 8.81815 10.5008 8.52123C11.2155 8.22431 12.0022 8.14615 12.7614 8.29665C13.5205 8.44715 14.2179 8.81954 14.7652 9.36666C14.796 9.39741 14.8235 9.43016 14.8478 9.46451C15.1691 9.80581 15.426 10.2029 15.6056 10.6367C15.8023 11.1117 15.9024 11.6211 15.9 12.1352C15.9009 12.9081 15.6728 13.664 15.2443 14.3074C14.8153 14.9515 14.2048 15.4539 13.4901 15.7508C12.7754 16.0477 11.9887 16.1258 11.2296 15.9753C10.4705 15.8248 9.7731 15.4525 9.22576 14.9053C9.19499 14.8746 9.16746 14.8418 9.14316 14.8075Z" fill="#9A9A9A"/>
</svg>
