<svg width="24" height="24" viewBox="0 0 24 24" fill="none" xmlns="http://www.w3.org/2000/svg">
<g clip-path="url(#clip0_106_194)">
<path d="M23.1936 12.2245C23.1936 11.2413 23.1157 10.5237 22.947 9.77963H11.9782V14.2176H18.4166C18.2869 15.3205 17.5859 16.9815 16.0282 18.0976L16.0064 18.2461L19.4745 20.9963L19.7148 21.0209C21.9215 18.9347 23.1936 15.8653 23.1936 12.2245Z" fill="#4285F4"/>
<path d="M11.9782 23.9176C15.1325 23.9176 17.7806 22.8545 19.7148 21.0209L16.0282 18.0976C15.0417 18.8018 13.7176 19.2934 11.9782 19.2934C8.88879 19.2934 6.26669 17.2074 5.33198 14.324L5.19497 14.3359L1.58876 17.1927L1.5416 17.3269C3.46274 21.2334 7.40892 23.9176 11.9782 23.9176Z" fill="#34A853"/>
<path d="M5.33198 14.324C5.08535 13.5799 4.94262 12.7826 4.94262 11.9588C4.94262 11.1349 5.08535 10.3377 5.31901 9.5936L5.31247 9.43513L1.66107 6.53241L1.5416 6.59058C0.749805 8.21168 0.295471 10.0321 0.295471 11.9588C0.295471 13.8855 0.749805 15.7058 1.5416 17.3269L5.33198 14.324Z" fill="#FBBC05"/>
<path d="M11.9782 4.62403C14.1719 4.62403 15.6517 5.59402 16.4955 6.40461L19.7926 3.10928C17.7677 1.1826 15.1325 0 11.9782 0C7.40892 0 3.46274 2.68406 1.5416 6.59056L5.319 9.59359C6.26669 6.7102 8.88879 4.62403 11.9782 4.62403Z" fill="#EB4335"/>
</g>
<defs>
<clipPath id="clip0_106_194">
<rect width="22.9091" height="24" fill="white" transform="translate(0.295471)"/>
</clipPath>
</defs>
</svg>
