<svg width="25" height="24" viewBox="0 0 25 24" fill="none" xmlns="http://www.w3.org/2000/svg">
<path d="M12.7504 4.62623C12.7805 3.69952 13.029 2.33557 13.898 1.43958C14.7048 0.607075 15.6869 0.201576 16.2983 0.0162344C16.3521 -0.000990865 16.4093 -0.00457329 16.4648 0.00579602C16.5203 0.0161653 16.5725 0.040175 16.6169 0.0757538C16.6613 0.111333 16.6965 0.157412 16.7196 0.210017C16.7427 0.262621 16.7529 0.320171 16.7493 0.377702C16.7092 1.26448 16.4807 2.58747 15.8914 3.29607C15.3362 3.96371 14.4442 4.84843 13.1363 4.99793C13.0862 5.00347 13.0355 4.99785 12.9877 4.98144C12.9399 4.96504 12.8962 4.93826 12.8595 4.90293C12.8228 4.8676 12.7941 4.82457 12.7753 4.7768C12.7564 4.72903 12.748 4.67766 12.7504 4.62623Z" fill="black"/>
<path d="M14.8627 23.4545C15.5944 23.7257 16.333 23.9991 17.0017 23.9991C18.4335 23.9991 22.6006 20.8012 22.7499 17.4813C22.7512 17.3976 22.7284 17.3153 22.6841 17.2434C22.6398 17.1716 22.5757 17.1131 22.4991 17.0745C21.4395 16.5005 19.7078 15.0699 19.6483 12.9896C19.5783 10.5646 20.835 8.63912 21.7861 7.84248C22.0008 7.66281 22.0743 7.34641 21.8829 7.14527C21.0171 6.22998 19.276 4.97003 17.6867 5.00054C16.5314 5.02314 15.4894 5.44124 14.5943 5.79832C13.9093 6.07291 13.3107 6.31247 12.8136 6.31247C12.3433 6.31247 11.7785 6.07517 11.1297 5.80058C10.2569 5.4322 9.23231 5.00054 8.08406 5.00054C5.95559 5.00167 1.75 6.71022 1.75 13.3071C1.75 16.8056 5.47832 24.0918 8.62551 23.9991C9.30466 23.9991 10.0305 23.7279 10.7516 23.4567C11.4611 23.1901 12.1648 22.9256 12.8136 22.9256C13.4402 22.9256 14.1474 23.1889 14.8627 23.4545Z" fill="black"/>
</svg>
