<svg width="24" height="24" viewBox="0 0 24 24" fill="none" xmlns="http://www.w3.org/2000/svg">
<path d="M6.42 17.73C4.19 16.27 2.75 14.07 2.75 12.14C2.75 8.86 6.89 4.84 12 4.84C13.991 4.84759 15.9355 5.44242 17.59 6.55" stroke="#9A9A9A" stroke-width="1.5" stroke-miterlimit="10" stroke-linecap="round" stroke-linejoin="round"/>
<path d="M19.85 8.61C20.6965 9.5989 21.1923 10.84 21.26 12.14C21.26 15.42 17.11 19.44 12 19.44C11.1111 19.4388 10.2265 19.3177 9.37 19.08" stroke="#9A9A9A" stroke-width="1.5" stroke-miterlimit="10" stroke-linecap="round" stroke-linejoin="round"/>
<path d="M9.76605 14.3721C9.47098 14.08 9.23717 13.732 9.07834 13.3483C8.9195 12.9647 8.83883 12.5533 8.84105 12.1381C8.83984 11.5126 9.02427 10.9009 9.37097 10.3803C9.71768 9.85977 10.2111 9.4538 10.7887 9.21383C11.3662 8.97387 12.0021 8.9107 12.6156 9.03233C13.2291 9.15396 13.7927 9.45492 14.235 9.89709" stroke="#9A9A9A" stroke-width="1.5" stroke-miterlimit="10" stroke-linecap="round" stroke-linejoin="round"/>
<path d="M15.11 12.699C14.9954 13.3303 14.6912 13.9116 14.238 14.3657C13.7848 14.8199 13.204 15.1252 12.573 15.241" stroke="#9A9A9A" stroke-width="1.5" stroke-miterlimit="10" stroke-linecap="round" stroke-linejoin="round"/>
<path d="M19.892 4.25L4.11801 20.024" stroke="#9A9A9A" stroke-width="1.5" stroke-miterlimit="10" stroke-linecap="round" stroke-linejoin="round"/>
</svg>
